<?xml version="1.0" standalone="no"?>
<!DOCTYPE svg PUBLIC "-//W3C//DTD SVG 20010904//EN"
 "http://www.w3.org/TR/2001/REC-SVG-20010904/DTD/svg10.dtd">
<svg version="1.0" xmlns="http://www.w3.org/2000/svg"
 width="428.000000pt" height="428.000000pt" viewBox="0 0 428.000000 428.000000"
 preserveAspectRatio="xMidYMid meet">
<metadata>
Created by potrace 1.11, written by Peter Selinger 2001-2013
</metadata>
<g transform="translate(0.000000,428.000000) scale(0.100000,-0.100000)"
fill="#000000" stroke="none">
<path d="M1645 3293 c-273 -8 -921 -62 -1006 -84 -62 -16 -347 -336 -478 -537
l-54 -82 44 -48 c56 -62 405 -410 484 -483 424 -391 1003 -834 1418 -1086 112
-68 66 -84 421 153 223 149 427 296 591 427 55 45 133 108 175 141 41 33 82
67 91 75 9 9 42 39 75 66 270 230 773 720 774 754 0 23 -122 199 -220 316
-118 140 -275 305 -292 305 -7 0 -42 5 -78 10 -67 9 -432 44 -575 55 -293 21
-966 30 -1370 18z m236 -170 c-11 -16 -33 -64 -48 -108 -24 -72 -27 -94 -27
-215 -1 -104 4 -149 18 -195 23 -74 66 -166 105 -224 l30 -44 -83 -89 c-46
-48 -99 -110 -117 -138 -32 -46 -37 -50 -77 -50 -100 0 -139 45 -129 149 6 72
25 109 93 186 30 33 54 65 54 70 0 8 -384 268 -600 406 -108 69 -257 114 -390
118 l-35 2 40 37 c38 36 45 39 140 50 295 35 726 67 948 71 l98 1 -20 -27z
m1059 2 c107 -8 281 -24 385 -35 105 -11 195 -20 202 -20 6 0 28 -17 47 -37
l35 -38 -113 -17 c-183 -27 -184 -28 -641 -331 -132 -87 -246 -165 -253 -172
-11 -10 -3 -24 43 -76 69 -79 92 -122 99 -185 11 -98 -36 -154 -130 -154 -38
0 -43 4 -87 63 -25 34 -67 85 -93 112 -26 28 -58 62 -71 76 l-24 26 40 62 c48
75 97 207 112 304 19 123 -5 274 -64 397 l-25 53 171 -7 c95 -4 260 -13 367
-21z m-749 -202 c30 -90 23 -211 -16 -298 l-27 -60 -25 53 c-46 99 -47 251 -3
346 28 58 40 51 71 -41z m-1381 -234 c64 -15 113 -42 314 -172 99 -64 183
-118 188 -119 4 -2 1 -28 -7 -58 -17 -64 -19 -175 -4 -239 l10 -45 -64 -64
-63 -63 -214 218 c-208 212 -483 513 -476 520 2 2 32 10 67 18 77 16 188 18
249 4z m2950 -10 c19 -6 37 -13 39 -15 9 -8 -266 -307 -517 -564 l-172 -175
-65 65 c-64 64 -65 66 -54 100 16 52 13 208 -4 258 l-15 43 36 23 c21 13 75
48 122 78 260 168 289 185 353 198 55 12 233 5 277 -11z m-1519 -632 c75 -70
82 -80 65 -89 -37 -21 -95 -80 -127 -129 l-32 -50 -32 49 c-18 27 -57 70 -87
96 l-53 48 84 80 c46 43 87 77 91 76 4 -2 45 -38 91 -81z m-757 -182 c11 -8
45 -20 76 -26 l57 -11 -9 -42 c-10 -43 -5 -207 8 -241 5 -13 -10 -4 -42 25
-27 25 -88 81 -137 125 l-87 79 52 53 c29 29 55 53 58 53 3 0 14 -7 24 -15z
m1411 -36 l50 -49 -75 -73 c-93 -89 -178 -167 -182 -167 -2 0 -3 65 -3 145 l0
145 50 10 c28 6 61 17 75 25 14 8 27 14 30 14 3 0 28 -22 55 -50z m-990 -59
c52 -36 98 -93 125 -154 19 -41 20 -63 18 -246 l-3 -201 -62 56 c-71 64 -124
151 -147 240 -18 68 -21 226 -5 276 6 19 12 40 15 47 5 17 10 16 59 -18z m557
-18 c7 -21 12 -79 12 -137 0 -121 -26 -214 -82 -301 -33 -51 -127 -144 -146
-144 -3 0 -6 89 -6 198 0 188 1 199 25 250 13 29 36 68 51 87 28 37 112 97
125 90 4 -3 13 -22 21 -43z"/>
</g>
</svg>
