<svg xmlns="http://www.w3.org/2000/svg" viewBox="0 0 419 261" xmlns:xlink="http://www.w3.org/1999/xlink">
  <title>
    rrott logo
  </title>
  <desc>
    rrott ruby logo. Created by Roman Rott
  </desc>
  <defs>
    <filter id="a" width="200%" height="200%" x="-50%" y="-50%" filterUnits="objectBoundingBox">
      <feOffset dy="4" in="SourceAlpha" result="shadowOffsetOuter1"/>
      <feGaussianBlur stdDeviation="2" in="shadowOffsetOuter1" result="shadowBlurOuter1"/>
      <feColorMatrix values="0 0 0 0 0 0 0 0 0 0 0 0 0 0 0 0 0 0 0.35 0" in="shadowBlurOuter1" result="shadowMatrixOuter1"/>
      <feMerge>
        <feMergeNode in="shadowMatrixOuter1"/>
        <feMergeNode in="SourceGraphic"/>
      </feMerge>
    </filter>
    <path id="b" d="M204.2 247.988c-70.647.208-146.713-6.03-150.744-7.072-6.2-1.6-52.458-58.157-52.458-58.157S180.404.97 204.2.97c23.797 0 201.415 178.38 201.515 181.78 0 2.3-49.73 58.158-51.43 58.158-.368 0-71.764 6.84-150.084 7.073zm-122.378-44.62c21.167-6.932 69.648-42.802 69.648-42.802s-8.588-6.284-12.428-14.362c-.45-.947-4.17-8.163-3.765-14.29.332-5.026 4.64-9.13 5.625-10.025 1.474-1.34 7.11-4.65 12.228-5.01 5.458-.39 10.413 2.25 11.94 3.08 14.865 8.05 27.798 34.06 27.798 34.06s-8.707 13.39-13.367 29.07c-3.07 10.36-2.23 21.13 0 27.44 5.61 15.875 5.82 17.66 5.82 17.66h-16.54c-10.31-.4-103.38-4.59-103.38-4.59-.65 0-20.91-20.247-20.91-20.247s23.69 4.47 37.34 0zm245.092 0c-21.167-6.932-69.648-42.802-69.648-42.802s8.588-6.284 12.428-14.362c.45-.947 4.17-8.163 3.766-14.29-.333-5.026-4.64-9.13-5.626-10.025-1.474-1.34-7.11-4.65-12.228-5.01-5.458-.39-10.413 2.25-11.94 3.08-14.865 8.05-27.798 34.06-27.798 34.06s8.707 13.39 13.367 29.07c3.08 10.36 2.232 21.13 0 27.44-5.61 15.875-5.814 17.66-5.814 17.66h16.54c10.31-.4 103.38-4.59 103.38-4.59.66 0 20.92-20.247 20.92-20.247s-23.69 4.47-37.34 0zM213.2 183.1c-2.448-8.967-8.694-16.202-8.694-16.202s-6.13 7.107-8.76 16.202c-2.65 9.174-1.796 20.36 0 26.332 3.58 11.89 8.76 18.753 8.76 18.753s6.36-9.307 8.694-18.753c1.35-5.47 2.588-16.852 0-26.332zm-138.998 2.24c9.513-3.477 18.818-9.535 29.304-16.317 5.546-3.585 21.564-13.41 21.564-13.41s-6.103-5.795-7.6-16.37c-1.496-10.572 2.487-17.21 2.487-17.21L107.7 108l-79.972 76s11.698 2.974 22.344 3.132c4.423.065 15.408 1.396 24.13-1.792zm261.664-.022c-9.513-3.477-18.82-9.535-29.304-16.317-5.546-3.58-21.564-13.41-21.564-13.41s6.103-5.79 7.6-16.36c1.496-10.57-2.487-17.21-2.487-17.21l12.26-14.03 79.97 76s-11.69 2.97-22.34 3.13c-4.42.07-15.4 1.4-24.13-1.79zM204.59 138.186s21.633-28.376 21.743-29.04c.085-.52-6.802-4.782-11.653-9.97-5.806-6.21-10.09-15.923-10.09-15.923s-4.24 9.813-10.315 15.923c-5.264 5.295-10.677 9.405-10.572 9.97.153.813 20.888 29.04 20.888 29.04zm-62.622-36.58c6.468-2.23 14.196-1.322 14.196-1.322s-2.438-7.32-2.742-11.19c-.622-7.917 0-24.518 0-24.518l-34.98 32.945s10.22 11.8 10.523 11.8c.044 0 5.906-5.25 13.003-7.7zm126.27-.598c-6.468-2.23-14.197-1.323-14.197-1.323s2.44-7.32 2.75-11.19c.62-7.916 0-24.517 0-24.517l34.98 32.945s-10.22 11.79-10.52 11.79c-.04 0-5.9-5.256-13-7.705zM184.18 84.102c1.385-2.19 3.883-6.933 4.654-12.81C191.1 54.02 192.3 27.665 192.3 27.665s-15.654 10.873-20.983 22.842c-2.636 5.923-3.437 18.486-2.38 28.54 1.05 9.994 3.953 17.495 3.962 17.526.11.535 5.82-3.85 11.28-12.472zm39.94.312c-1.385-2.19-3.883-6.933-4.654-12.81-2.266-17.272-3.468-43.626-3.468-43.626s15.655 10.872 20.984 22.842c2.637 5.922 3.438 18.486 2.38 28.54-1.05 9.994-3.952 17.495-3.962 17.526-.112.535-5.824-3.85-11.28-12.472z"/>
  </defs>
  <g fill="none" fill-rule="evenodd">
    <path d="M210.9 8.112c-70.647-.208-146.713 6.03-150.744 7.072-6.2 1.6-52.458 58.157-52.458 58.157S187.104 255.13 210.9 255.13c23.797 0 201.415-178.38 201.515-181.78 0-2.3-49.73-58.158-51.43-58.158-.368 0-71.764-6.84-150.084-7.073z"/>
    <g transform="matrix(1 0 0 -1 6.7 258.1)" filter="url(#a)">
      <use fill="#D0021B" stroke="#000" stroke-width="4" xlink:href="#b"/>
      <use/>
    </g>
  </g>
</svg>
