<svg fill="none" height="45" viewBox="0 0 72 45" width="72" xmlns="http://www.w3.org/2000/svg" xmlns:xlink="http://www.w3.org/1999/xlink"><clipPath id="a"><path d="m0 0h72v45h-72z"/></clipPath><g clip-path="url(#a)"><g fill="#3e3c3d"><path d="m33.5291 21.2083c-1.2736.1451-2.3237-.1434-3.155-1.1613-1.8885 1.6481-4.0717 2.0207-6.426 1.4843-1.9059-.4344-3.4087-1.5336-4.5602-3.1077-2.3067-3.1526-1.9448-7.4977.7558-10.35244 2.6023-2.75052 7.3256-3.32937 10.2233-.7258.8199-.97912 1.8817-1.30825 3.1621-1.12465zm-3.6738-7.5387c-.0079-2.2565-1.7619-4.02071-3.997-4.02035-2.2472.00036-4.0702 1.81705-4.0524 4.03865.0185 2.2906 1.8298 4.113 4.0717 4.0958 2.224-.0173 3.9855-1.839 3.9777-4.1141z"/><path d="m50.6589 15.0276c.5861 1.4613 1.543 2.3545 2.9742 2.6546 1.4522.3043 2.7201-.1046 3.7639-1.18.137-.1412.2697-.2487.4846-.2472 1.2053.0072 2.4109.0039 3.6162.0039.1398 0 .2786.0036.3776.1599.0914.2052-.0509.3888-.1281.5706-1.3437 3.1666-4.756 5.0559-8.1541 4.7224-3.3236-.3262-6.3487-3.1799-6.9736-6.4949-.9024-4.7863 2.7066-9.40671 7.5245-9.54001 2.6967-.07474 4.9257.88534 6.5438 3.07498.8512 1.15195 1.2988 2.47713.9903 3.96423-.2569 1.24-1.2465 2.213-2.4942 2.2605-1.771.0671-3.5457.0416-5.3189.0506-1.0316.0047-2.0629.0004-3.2062.0004zm.0744-2.8637c2.2269 0 4.3559.0072 6.4843-.0061.4238-.0025.6413-.3615.4936-.7643-.0577-.157-.1651-.304-.2776-.4301-.9907-1.11456-2.255-1.49866-3.6784-1.26259-1.3975.23211-2.3682 1.07829-3.0219 2.46309z"/><path d="m15.2504 15.9347c.295.1096.2583.3183.2587.5037.0025 1.0259.0107 2.0517-.0021 3.0772-.0121.969-.3125 1.3948-1.2203 1.6937-6.79319 2.2375-12.93058-2.2557-14.081405-8.1983-1.064711-5.49676 2.102735-10.83898 7.396035-12.54463 2.46677-.795153 5.55597-.5619607 7.86757.61119v4.67247c-.3114.14623-.4534-.0733-.6221-.20553-3.5791-2.81016-9.03505-1.08368-10.38622 3.28805-.88607 2.86655.13807 5.85815 2.61124 7.62745 2.24864 1.6086 5.45838 1.5159 7.75798-.2232.1366-.1034.2782-.2004.4206-.3021z"/><path d="m40.7722 6.17594h3.7635c-.011 1.08835.0883 2.12568-.0626 3.15223-.0765.52136-.6046.81163-1.2889.82313-.7736.0126-1.5476.0029-2.2928.0029-.1473.1405-.1046.2882-.1046.4215-.0028 1.8256-.006 3.6513 0 5.4766.0032 1.056.364 1.4714 1.3772 1.6722.7757.1538 1.4935-.0237 2.3048-.4132.1424 1.4423.0406 2.8091.0651 4.1569-3.1229.9798-7.5722-.5972-7.6544-5.002-.0875-4.6926-.0256-9.38803-.0277-14.08242 0-.08587.0149-.17211.027-.30685 1.1541-.19331 2.1597.05929 3.0006.9184.849.86773.9725 1.95177.8928 3.18061z"/><path d="m71.9999 5.8972v4.01385c-.2007.14655-.3509.05713-.506-.01976-.6149-.30398-1.2729-.29967-1.9195-.19834-.8996.14121-1.2921.64205-1.2949 1.58345-.0064 2.3629-.0029 4.7257-.0029 7.0881 0 .7647.0025 1.5289-.0017 2.2932-.0011.1692.0419.3499-.1118.5422-1.2149 0-2.4618 0-3.7179 0-.1363-.1093-.1022-.2753-.1022-.4269 0-3.2313-.0242-6.4633.0125-9.6942.0338-2.99269 2.2849-5.27215 5.2506-5.38461.7864-.02947 1.5775-.0751 2.3938.20301z"/><path d="m12.0421 40.7656c1.5155 0 2.9425-.0007 4.3695.0003 1.006.0008 1.4291.4255 1.4323 1.4409.0028.8968.0007 1.7937.0007 2.6416-.189.1998-.374.1455-.5416.1455-3.8236.0029-7.64728-.001-11.47056.0069-.47578.001-.8512-.1179-1.08144-.5739-.23593-.4674-.05978-.8389.21743-1.213 2.77778-3.749 5.55127-7.5013 8.32587-11.2529.4687-.6334.8416-1.3071.7192-2.1361-.1772-1.2022-1.0665-2.0362-2.2451-2.1357-1.091-.092-2.09453.6083-2.47174 1.7261-.04412.1308-.0854.2627-.13985.4319-1.35473 0-2.70305 0-4.07344 0-.13807-.6176.03523-1.1821.21493-1.7186 1.01205-3.0217 3.6055-4.8585 6.7103-4.653 3.318.2199 5.7766 2.6549 6.1595 5.8467.2373 1.9783-.3954 3.6649-1.5451 5.2118-1.4651 1.9708-2.9241 3.9463-4.3845 5.9207-.0516.0686-.0929.1455-.1964.3108z"/><path d="m31.5514 41.5855c-1.2543 0-2.5066 0-3.735 0-.1605-.1473-.1245-.3147-.1245-.4682-.0018-3.1378-.0168-6.2757.0042-9.4135.0182-2.6927 1.4348-4.7084 3.9998-5.4745 2.5835-.7714 5.1001-.6022 7.4035 1.0557 1.8569-1.4269 3.9952-1.6715 6.2395-1.3374 3.2045.4772 5.1012 2.6327 5.1546 5.9365.0494 3.0844.011 6.1698.0128 9.2548 0 .1426.0043.2828-.1303.456-.9287 0-1.9041.0456-2.8724-.0184-.5206-.0345-.8736-.4168-.9604-.9701-.0353-.2246-.0452-.4556-.0452-.6834-.0029-2.609-.0214-5.2183.006-7.8269.0142-1.3373-.2989-1.8996-1.7867-2.1821-.7534-.143-1.5327-.12-2.2842.0917-.9498.2673-1.3316.7836-1.3338 1.8113-.0057 3.0322-.001 6.064-.005 9.0962-.0003.2059.0559.4248-.1071.6547-1.239 0-2.5037 0-3.7788 0-.1729-.1868-.106-.4276-.1064-.6482-.0042-2.9262-.0025-5.8524-.0032-8.779-.0003-1.4847-.4117-2.0161-1.8568-2.2353-.8099-.1229-1.6387-.1221-2.4291.1757-.8028.3026-1.1298.7736-1.1312 1.6399-.0046 3.0674-.0011 6.1349-.005 9.2019 0 .2056.0594.4258-.1253.6626z"/><path d="m57.0202 35.3078c.9896 2.882 4.5399 3.6998 6.67 1.6173.2755-.2695.536-.3859.9146-.378 1.0643.023 2.1298.0057 3.1945.01.185.0007.3896-.0539.5387.1243.1146.2045-.0138.3741-.0839.5469-1.3103 3.2241-4.8307 5.1974-8.2718 4.8597-3.4098-.3342-6.4609-3.2651-7.0847-6.5696-.922-4.8841 2.7386-9.5667 7.6562-9.6917 2.7358-.0697 4.9897.9184 6.621 3.1439.8469 1.1552 1.2928 2.4847.9882 3.9729-.2637 1.2889-1.2644 2.2773-2.5643 2.3133-2.3376.0647-4.6777.0391-7.0164.0499-.501.0033-1.0013.0011-1.5621.0011zm.0398-2.9021c2.255 0 4.3962.0064 6.537-.0051.4868-.0025.7124-.3866.5146-.835-.0691-.1563-.1808-.3-.2972-.4269-.9917-1.0811-2.2447-1.4599-3.6478-1.2378-1.4391.2278-2.4358 1.0905-3.1066 2.5048z"/></g><path d="m22.7616 41.5251c1.7071 0 3.0909-1.3973 3.0909-3.1209 0-1.7237-1.3838-3.121-3.0909-3.121s-3.0909 1.3973-3.0909 3.121c0 1.7236 1.3838 3.1209 3.0909 3.1209z" fill="#ffd93d"/></g></svg>