<?xml version="1.0" encoding="UTF-8" standalone="no"?>
<svg width="418px" height="418px" viewBox="0 0 418 418" version="1.1" xmlns="http://www.w3.org/2000/svg" xmlns:xlink="http://www.w3.org/1999/xlink">
    <!-- Generator: Sketch 3.6 (26304) - http://www.bohemiancoding.com/sketch -->
    <title>rrott-ruby-logo-origin</title>
    <desc>Created with Sketch.</desc>
    <defs>
        <filter x="-50%" y="-50%" width="200%" height="200%" filterUnits="objectBoundingBox" id="filter-1">
            <feOffset dx="0" dy="4" in="SourceAlpha" result="shadowOffsetOuter1"></feOffset>
            <feGaussianBlur stdDeviation="2" in="shadowOffsetOuter1" result="shadowBlurOuter1"></feGaussianBlur>
            <feColorMatrix values="0 0 0 0 0   0 0 0 0 0   0 0 0 0 0  0 0 0 0.35 0" in="shadowBlurOuter1" type="matrix" result="shadowMatrixOuter1"></feColorMatrix>
            <feMerge>
                <feMergeNode in="shadowMatrixOuter1"></feMergeNode>
                <feMergeNode in="SourceGraphic"></feMergeNode>
            </feMerge>
        </filter>
        <path d="M204.200826,247.987502 C133.553453,248.195744 57.4871481,241.959358 53.4560471,240.916015 C47.2560471,239.316015 0.998295784,182.758834 0.998295784,182.758834 C0.998295784,182.758834 180.404323,0.977904264 204.200821,0.977904264 C227.997319,0.977904264 405.615428,179.358834 405.715428,182.758834 C405.715428,185.058834 355.985187,240.916015 354.285187,240.916015 C353.91716,240.916015 282.520859,247.756644 204.200826,247.987502 Z M81.8221043,202.368894 C102.988783,195.435995 151.470127,159.565796 151.470127,159.565796 C151.470127,159.565796 142.881938,153.281676 139.04249,145.204371 C138.592099,144.256852 134.872017,137.040529 135.276682,130.915105 C135.608777,125.888177 139.915588,121.782966 140.901972,120.888672 C142.376059,119.552207 148.011729,116.239654 153.130289,115.880261 C158.588094,115.497048 163.543022,118.136816 165.070937,118.964634 C179.935009,127.01792 192.868136,153.028274 192.868136,153.028274 C192.868136,153.028274 184.161299,166.417221 179.501297,182.099997 C176.422016,192.463013 177.269323,203.228724 179.501297,209.545355 C185.111009,225.421202 185.315142,227.20336 185.315142,227.20336 L168.777659,227.203357 C158.46779,226.804455 65.3958667,222.615982 65.3958667,222.615982 C64.7447147,222.615983 44.4839348,202.368897 44.4839348,202.368897 C44.4839348,202.368897 68.1757225,206.838608 81.8221043,202.368894 Z M326.914167,202.368894 C305.747488,195.435995 257.266145,159.565796 257.266145,159.565796 C257.266145,159.565796 265.854334,153.281676 269.693781,145.204371 C270.144173,144.256852 273.864254,137.040529 273.459589,130.915105 C273.127494,125.888177 268.820683,121.782966 267.834299,120.888672 C266.360213,119.552207 260.724543,116.239654 255.605982,115.880261 C250.148178,115.497048 245.19325,118.136816 243.665335,118.964634 C228.801262,127.01792 215.868136,153.028274 215.868136,153.028274 C215.868136,153.028274 224.574973,166.417221 229.234974,182.099997 C232.314255,192.463013 231.466948,203.228724 229.234974,209.545355 C223.625263,225.421202 223.42113,227.20336 223.42113,227.20336 L239.958613,227.203357 C250.268482,226.804455 343.340405,222.615982 343.340405,222.615982 C343.991557,222.615983 364.252337,202.368897 364.252337,202.368897 C364.252337,202.368897 340.560549,206.838608 326.914167,202.368894 Z M213.199724,182.100001 C210.751591,173.132689 204.505925,165.898328 204.505925,165.898328 C204.505925,165.898328 198.376301,173.005062 195.746797,182.100001 C193.094571,191.273534 193.949902,202.461306 195.746797,208.431947 C199.325194,220.322076 204.505925,227.185308 204.505925,227.185308 C204.505925,227.185308 210.866065,217.87783 213.199724,208.431947 C214.551437,202.96066 215.787736,191.57968 213.199724,182.100001 Z M74.2022393,184.339668 C83.7146411,180.86298 93.0204081,174.804866 103.505634,168.023376 C109.051737,164.438017 125.069606,154.612419 125.069606,154.612419 C125.069606,154.612419 118.966976,148.81752 117.470477,138.244234 C115.973979,127.670948 119.956569,121.031803 119.956569,121.031803 L107.7,107 L27.7280763,183 C27.7280763,183 39.4256038,185.973552 50.0724481,186.131706 C54.4952577,186.197405 65.4795278,187.527733 74.2022393,184.339668 Z M335.865663,184.317573 C326.353261,180.840884 317.047494,174.78277 306.562268,168.001281 C301.016165,164.415921 284.998296,154.590323 284.998296,154.590323 C284.998296,154.590323 291.100926,148.795424 292.597425,138.222138 C294.093923,127.648852 290.111333,121.009707 290.111333,121.009707 L302.367902,106.977904 L382.339826,182.977904 C382.339826,182.977904 370.642298,185.951456 359.995454,186.109611 C355.572644,186.17531 344.588374,187.505637 335.865663,184.317573 Z M204.590881,137.185526 C204.590881,137.185526 226.223476,108.809918 226.332703,108.144638 C226.417987,107.625184 219.53114,103.364054 214.6804,98.1756866 C208.874026,91.9651722 204.590882,82.2528549 204.590882,82.2528549 C204.590882,82.2528549 200.349688,92.065535 194.275248,98.1756866 C189.01132,103.470561 183.597821,107.581007 183.703358,108.144638 C183.855867,108.959133 204.590881,137.185526 204.590881,137.185526 Z M141.968023,100.606563 C148.436041,98.3751401 156.164253,99.2835995 156.164253,99.2835995 C156.164253,99.2835995 153.725549,91.9625011 153.421577,88.0932442 C152.799664,80.1769241 153.421578,63.5760456 153.421578,63.5760456 L118.44152,96.5211521 C118.44152,96.5211521 128.660576,108.312458 128.965167,108.312458 C129.00944,108.312458 134.871244,103.054904 141.968023,100.606563 Z M268.237543,100.008422 C261.769525,97.7769987 254.041313,98.6854581 254.041313,98.6854581 C254.041313,98.6854581 256.480017,91.3643598 256.783989,87.4951028 C257.405902,79.5787828 256.783988,62.9779043 256.783988,62.9779043 L291.764046,95.9230108 C291.764046,95.9230108 281.54499,107.714316 281.240399,107.714316 C281.196126,107.714316 275.334322,102.456763 268.237543,100.008422 Z M184.179548,83.1021889 C185.564947,80.9132327 188.062884,76.1693583 188.83406,70.2914844 C191.100047,53.0202143 192.30148,26.6660393 192.30148,26.6660393 C192.30148,26.6660393 176.646278,37.5385284 171.317463,49.5077103 C168.68054,55.4305678 167.87976,67.9942394 168.937074,78.0472039 C169.988232,88.0416427 172.889862,95.5427642 172.899414,95.5740746 C173.011468,96.1092605 178.723359,91.7230719 184.179548,83.1021889 Z M224.120227,83.4140538 C222.734828,81.2250976 220.236891,76.4812232 219.465715,70.6033493 C217.199728,53.3320792 215.998296,26.9779043 215.998296,26.9779043 C215.998296,26.9779043 231.653498,37.8503933 236.982312,49.8195753 C239.619235,55.7424327 240.420015,68.3061043 239.362702,78.3590688 C238.311543,88.3535077 235.409914,95.8546291 235.400361,95.8859395 C235.288308,96.4211254 229.576416,92.0349369 224.120227,83.4140538 Z" id="path-2"></path>
    </defs>
    <g id="ruby-logo" stroke="none" stroke-width="1" fill="none" fill-rule="evenodd">
        <path d="M210.900826,306.116999 C140.253453,306.325241 64.1871481,300.088855 60.1560471,299.045512 C53.9560471,297.445512 7.69829578,240.888331 7.69829578,240.888331 C7.69829578,240.888331 187.104323,59.1074012 210.900821,59.1074012 C234.697319,59.1074012 412.315428,237.488331 412.415428,240.888331 C412.415428,243.188331 362.685187,299.045512 360.985187,299.045512 C360.61716,299.045512 289.220859,305.886141 210.900826,306.116999 Z" id="ruby-bkg" stroke="#979797" fill="#0061D2" transform="translate(210.056862, 182.614748) scale(1, -1) translate(-210.056862, -182.614748) "></path>
        <g transform="translate(209.700000, 178.100000) scale(1, -1) translate(-209.700000, -178.100000) translate(6.700000, 54.100000)" id="logo" filter="url(#filter-1)">
            <g>
                <use stroke="#000000" stroke-width="4" fill="#C30119" xlink:href="#path-2"></use>
                <use stroke="none" fill="#F8E81C" xlink:href="#path-2"></use>
            </g>
        </g>
    </g>
</svg>