<?xml version="1.0" standalone="no"?>
<!DOCTYPE svg PUBLIC "-//W3C//DTD SVG 20010904//EN"
 "http://www.w3.org/TR/2001/REC-SVG-20010904/DTD/svg10.dtd">
<svg version="1.0" xmlns="http://www.w3.org/2000/svg"
 width="700.000000pt" height="700.000000pt" viewBox="0 0 700.000000 700.000000"
 preserveAspectRatio="xMidYMid meet">
<metadata>
Created by potrace 1.11, written by Peter Selinger 2001-2013
</metadata>
<g transform="translate(0.000000,700.000000) scale(0.100000,-0.100000)"
fill="#000000" stroke="none">
<path d="M2645 5930 c-490 -18 -1095 -54 -1459 -87 l-189 -17 -47 -37 c-49
-39 -201 -201 -366 -389 -112 -128 -457 -539 -467 -556 -6 -11 817 -836 1268
-1270 1251 -1204 1960 -1796 2149 -1796 197 0 953 637 2276 1918 397 383 941
933 1059 1068 28 33 51 65 51 72 0 6 -17 35 -39 63 -85 114 -614 712 -761 861
l-66 67 -89 6 c-50 4 -211 15 -360 27 -766 56 -1153 71 -1990 75 -407 2 -843
-1 -970 -5z m545 -357 c0 -4 -25 -83 -56 -176 -49 -150 -56 -182 -61 -276 -3
-63 -1 -135 6 -176 18 -112 80 -278 163 -444 66 -131 76 -156 66 -175 -6 -11
-35 -61 -66 -111 -131 -214 -267 -362 -391 -423 -68 -34 -82 -37 -155 -36 -94
0 -151 21 -216 80 -106 96 -110 208 -13 395 31 61 172 219 195 219 38 0 -76
86 -437 328 -365 245 -641 396 -783 429 -85 19 -296 24 -442 10 l-85 -8 135
136 c74 75 144 141 155 147 12 7 326 25 830 48 791 37 1155 47 1155 33z m1811
-32 c811 -36 848 -39 875 -59 16 -11 85 -77 154 -147 l125 -126 -85 8 c-145
14 -377 8 -450 -11 -125 -33 -352 -153 -636 -336 -144 -92 -513 -346 -562
-386 l-23 -19 89 -90 c92 -93 125 -145 161 -253 52 -154 7 -264 -139 -339 -47
-24 -67 -28 -135 -28 -69 0 -89 4 -145 31 -129 61 -256 195 -390 409 -102 163
-99 148 -49 235 94 167 177 381 199 512 24 149 10 259 -61 474 -27 83 -49 154
-49 157 0 14 293 5 1121 -32z m-1395 -106 c63 -132 78 -202 78 -380 1 -118 -3
-163 -17 -210 -21 -67 -75 -175 -110 -219 l-23 -29 -32 49 c-162 254 -165 531
-7 844 44 87 42 89 111 -55z m-2301 -561 c96 -24 250 -106 572 -308 l301 -188
-32 -52 c-66 -102 -80 -157 -80 -296 0 -91 5 -137 17 -168 l17 -44 -91 -104
c-90 -103 -91 -104 -113 -86 -33 25 -1271 1203 -1274 1212 -1 3 21 12 50 18
199 41 498 49 633 16z m4822 16 c168 -9 346 -36 341 -51 -3 -9 -1284 -1229
-1291 -1229 -2 0 -45 47 -95 105 l-91 105 16 43 c8 23 18 88 20 144 6 120 -15
210 -74 306 -30 50 -33 61 -22 72 30 28 590 371 679 416 141 71 177 81 345 97
6 1 83 -3 172 -8z m-2413 -1062 l167 -223 -38 -30 c-136 -109 -190 -169 -263
-293 l-43 -72 -27 47 c-57 105 -87 142 -191 243 l-109 105 96 135 c146 205
225 310 234 310 4 0 83 -100 174 -222z m-1389 -284 c82 -60 185 -96 313 -110
34 -3 62 -9 62 -12 0 -4 -8 -29 -17 -57 -12 -36 -18 -106 -22 -256 l-6 -206
-266 251 c-158 149 -264 256 -260 263 19 36 144 162 154 156 7 -3 26 -17 42
-29z m2573 -59 c40 -44 71 -84 69 -89 -2 -5 -122 -120 -267 -257 l-265 -249
-6 213 c-4 144 -11 228 -21 263 l-16 51 92 11 c106 12 197 45 276 102 30 21
58 38 61 37 3 -1 38 -38 77 -82z m-808 -303 c32 -186 22 -437 -23 -544 -37
-88 -142 -214 -267 -318 l-50 -42 0 29 c1 133 48 643 67 717 25 102 90 210
184 308 l41 43 15 -40 c8 -22 23 -91 33 -153z m-1012 124 c63 -67 125 -161
152 -232 11 -30 27 -109 35 -177 19 -154 47 -545 43 -587 l-3 -32 -78 67 c-81
69 -184 190 -217 256 -69 134 -77 441 -18 677 11 45 24 82 28 82 4 0 30 -24
58 -54z"/>
</g>
</svg>
